<svg xmlns="http://www.w3.org/2000/svg" xmlns:xlink="http://www.w3.org/1999/xlink" id="Capa_1" x="0px" y="0px" viewBox="0 0 448.5 448.5" style="enable-background:new 0 0 448.5 448.5;" xml:space="preserve"><style type="text/css">	.st0{fill:#5ABA47;}	.st1{fill-rule:evenodd;clip-rule:evenodd;fill:#5ABA47;}</style><circle class="st0" cx="69.1" cy="45.9" r="11.4"></circle><circle class="st0" cx="91.3" cy="202.1" r="11.4"></circle><circle class="st0" cx="209.6" cy="135.6" r="11.4"></circle><circle class="st0" cx="372" cy="47" r="11.4"></circle><circle class="st0" cx="320.3" cy="246.4" r="11.4"></circle><circle class="st0" cx="216.9" cy="321" r="11.4"></circle><path class="st0" d="M402.1,88c11.1-17.9,16.8-31.7,16.8-41.1c0-12.5-4.9-24.2-13.7-33.1C396.3,4.9,384.5,0.1,372,0.1c0,0,0,0-0.1,0 c-18.1,0-34.3,10.3-42.1,26.4C296.4,8.6,258.7-0.6,220.7,0c-37.9,0.6-75.2,10.9-108,29.8c-4.1-10.6-11.8-19.2-22-24.5 C79.6-0.5,67-1.6,55,2.2C35.5,8.3,22.3,26.3,22.3,46.8c0,10.4,6.8,26,20.2,46.5C15,131.1,0,177.5,0.1,224.1 C0.1,284,23.3,340.3,65.6,382.7c42.3,42.4,98.5,65.8,158.4,65.8c0.1,0,0.2,0,0.3,0c59.8,0,116-23.2,158.3-65.5 c42.4-42.3,65.8-98.5,65.8-158.4C448.4,175.5,432,127,402.1,88z M224.3,428.5c-3.8,0-7.8-0.1-12.3-0.4v-19.3c0-1.5-0.4-3-1-4.4 l-9.6-19.1c-0.5-1-0.6-2.2-0.4-3.2c4.3,5.9,7.5,9.9,8.2,10.8c1.6,2.1,4,3.3,6.6,3.6c2.6,0.3,5.2-0.5,7.2-2.1c0.6-0.4,1.1-1,1.5-1.5 c10.2-12.8,19.6-26.5,27.7-40.6h11.2c0,0,0,0,0.1,0c12.1,0,22.3-8.7,24.2-20.6L291,312c0.4-2.4,2.5-4.1,4.8-4.1h8.4 c4.7,6.4,8.1,10.6,8.5,11.1c1.6,2.1,4,3.3,6.6,3.6c2.6,0.3,5.2-0.5,7.2-2.1c0.6-0.4,1.1-1,1.5-1.5c0.4-0.5,3.7-4.6,8.3-10.9 c2.1,0.6,3.6,2.5,3.7,4.7v7.4c0,13.6,11.1,24.6,24.6,24.6h2.7c1,0,2,0.3,2.8,0.9l11.7,8.4C342.9,401.4,285.7,428.5,224.3,428.5z  M216.9,293.1c14.9,0,27.1,12.1,27.1,27.1c0,9.3-13.3,31.5-27.1,50.3c-13.8-18.8-27.1-41-27.1-50.3 C189.8,305.3,201.9,293.1,216.9,293.1z M320.3,296.6c-13.8-18.8-27.1-41-27.1-50.3c0-14.9,12.2-27.1,27.1-27.1 c14.9,0,27.1,12.1,27.1,27.1C347.4,255.6,334.1,277.8,320.3,296.6z M364.6,325.1c-2.7,0-4.9-2.2-4.9-4.9v-7.4 c0-8.7-4.7-16.7-12.1-21.1c12.9-19.9,19.4-35.2,19.4-45.4c0-25.8-21-46.8-46.8-46.8s-46.8,21-46.8,46.8c0,9.7,5.9,23.9,17.5,42.4 c-9.9,1.9-17.8,9.9-19.5,20.1l-3.2,19.6c-0.4,2.4-2.5,4.1-4.8,4.1h-2.1c1.3-3.9,2.1-8,2.3-12.2l0-0.1c0-25.8-21-46.8-46.8-46.8 s-46.8,21-46.8,46.8c0,10.1,6.4,25.2,19.1,44.8c-8.1,7.3-10.4,19.4-5.4,29.2l8.5,17V426C124.7,415.1,66,370.2,37.8,307.9h48.7 c2.3,0,4.4,1.7,4.8,4l3.7,18.5c1.3,6.2,4.3,11.8,8.7,16.3l12.2,12.2c3.3,3.3,7.6,5.1,12.2,5.1c0,0,0,0,0,0c4.6,0,8.9-1.8,12.2-5 c3.2-3.2,5.1-7.7,5.1-12.2v-58.5c0-1,0.3-2.1,1-2.9l14.8-19.7c0.9-1.2,2.4-2,3.9-2h14.8c34,0,61.6-27.6,61.6-61.6 c0-7-1.9-13.9-5.5-19.9c13.4-20.5,20.2-36.2,20.2-46.6c0-25.8-21-46.8-46.8-46.8s-46.8,21-46.8,46.8l0,0.3c1.1,9.4,4,18.5,8.5,26.8 h-54.7c-6.7-4.3-14.2-6.8-22.1-7.3c0.8-1.5,2.5-2.5,4.3-2.5h29.6c13.6,0,24.6-11.1,24.6-24.6V91.1c0-1.3,0.5-2.6,1.6-3.5 c0.9-0.9,2.1-1.4,3.4-1.4c13.6,0,24.6-11.1,24.6-24.6V24c20.3-4.3,41-5.4,61.6-3.3v55.6C244,90,255,101,268.6,101h14.8 c2.7,0,4.9,2.2,4.9,4.9v7.4c0,13.2,10.4,24,23.5,24.6l4.7,33.2c1.7,11.6,12.2,19.7,23.9,18.4c11.2-1.5,19.5-11.2,19.4-22.5v-16.8 c0-0.3,0-0.5,0.1-0.7c0.2-1,0.8-1.8,1.8-2.2c1.4-0.7,3.2-0.7,4.6-0.1l8.1,4c9.8,4.9,10.1,5.5,10.1,9.8v18.7 c0,16.9,8.1,33.1,21.7,43.3l22,16.5c-2.7,35.3-14.5,69.3-34.3,98.6l-12.1-8.7c-4.2-3-9.1-4.6-14.2-4.6c0,0,0,0-0.1,0H364.6z  M69.1,97.1C55.3,78.3,42,56.1,42,46.8c0-14.9,12.1-27.1,27.1-27.1s27.1,12.1,27.1,27.1C96.2,56.1,82.9,78.3,69.1,97.1z M54.5,110.5 c2.3,3.1,4.6,6.2,6.9,9c3.4,4.2,9.6,4.9,13.9,1.5c0.6-0.4,1.1-1,1.5-1.5c3.6-4.5,35.1-44.3,38.7-68.3c14.7-9.3,30.6-16.7,47.2-22 v32.4c0,2.7-2.2,4.9-4.9,4.9c-13.5,0.1-24.5,11.1-24.6,24.6v36.9c0,2.7-2.2,4.9-4.9,4.9H98.7c-6.5-0.1-12.7,2.4-17.3,6.9 c-4.7,4.5-7.3,10.6-7.4,17.1c0,0.5,0,1,0,1.4c-17.7,7-29.5,24.3-29.6,43.5c0,23.2,35.1,67.7,39.1,72.7c1.6,2.1,4,3.3,6.6,3.6 c2.6,0.3,5.2-0.5,7.2-2.1c0.6-0.4,1.1-1,1.5-1.5c4-5,39.1-49.4,39.1-72.7c0-6.8-1.5-13.5-4.4-19.7h49.4 c8.9,13.6,17.7,24.6,18.7,25.9c1.6,2.1,4,3.3,6.6,3.6c2.6,0.3,5.2-0.5,7.2-2.1c0.6-0.5,1.1-1,1.5-1.5c0.6-0.7,2.3-2.8,4.6-5.9 c-0.1,23-18.9,41.6-41.9,41.6h-14.8c-7.7,0-15,3.7-19.7,9.9l-14.7,19.6c-3.3,4.2-5,9.5-5,14.9v52.5l-8-8c-1.7-1.7-2.9-3.9-3.4-6.3 l-3.7-18.5c-2.3-11.4-12.5-19.8-24.2-19.8H30.2C10.4,228.6,19.5,162.6,54.5,110.5z M64.2,202c0-14.9,12.1-27.1,27.1-27.1 s27.1,12.1,27.1,27.1c0,9.3-13.3,31.5-27.1,50.3C77.5,233.4,64.2,211.3,64.2,202z M236.6,135.5c0,9.3-13.3,31.5-27.1,50.3 c-13.8-18.8-27.1-41-27.1-50.3c0-14.9,12.1-27.1,27.1-27.1S236.6,120.5,236.6,135.5z M383.1,133.6l-8.2-4.1c-3.5-1.7-7.2-2.6-11-2.6 c-3.9,0-7.8,0.9-11.3,2.7c-6.5,3.2-11.1,9.4-12.3,16.5c-0.2,1.3-0.3,2.7-0.3,4V167l0,0.1c0.1,1.3-0.8,2.4-2,2.8 c-1,0.1-1.9-0.7-2.1-1.7l-5-35.2c-1.3-8.5-8.4-14.8-17.1-14.8h-1c-2.7,0-4.9-2.2-4.9-4.9v-7.4c0-13.6-11.1-24.6-24.6-24.6h-14.8 c-2.7,0-4.9-2.2-4.9-4.9V23.6c21.7,4.2,42.4,11.9,61.6,22.8c0,0.1,0,0.2,0,0.4c0,23.2,35.1,67.7,39.1,72.7v0c1.6,2.1,4,3.3,6.6,3.6 c2.6,0.3,5.2-0.5,7.2-2.1c0.6-0.4,1.1-1,1.5-1.5c0.9-1.1,5.2-6.6,10.7-14.1c23.2,32.4,36.3,70.2,38,109.9l-10.5-7.9 c-8.6-6.5-13.8-16.8-13.8-27.6v-18.7C404.1,144.2,392.9,138.6,383.1,133.6z M345,46.8c0-14.9,12.1-27.1,27.1-27.1 c14.9,0,27.1,12.1,27.1,27.1c0,9.3-13.3,31.5-27.1,50.3C358.2,78.3,345,56.1,345,46.8z"></path></svg>