<svg xmlns:xlink="http://www.w3.org/1999/xlink" xmlns="http://www.w3.org/2000/svg" id="Layer_1" data-name="Layer 1" viewBox="0 0 291.32 291.32" width="291.32"  height="291.32" ><defs><style>      .cls-1 {        fill: #3880ff;      }    </style></defs><path class="cls-1" d="M145.81,17.81c20.78,0,40.34,4.85,58.69,14.26h0l2.43,1.21-2.12,1.67c-5.16,4.09-9.25,9.4-11.83,15.47h0l-.76,1.67-1.52-.76c-14.1-6.67-29.12-10.16-44.74-10.16-57.78,0-104.64,47.01-104.64,104.64s46.71,104.64,104.49,104.64,104.64-47.01,104.64-104.64c0-13.8-2.58-27.3-8.04-40.04h0l-.76-1.67,1.67-.76c6.22-2.27,11.68-6.07,16.08-10.92h0l1.67-2.12,1.06,2.43c7.73,16.83,11.53,34.73,11.53,52.78,0,70.52-57.48,128-128,128S17.66,216.03,17.66,145.51,75.14,17.51,145.81,17.81Zm0,69.76c32,0,58.24,26.09,58.39,58.39,0,32.3-26.09,58.39-58.39,58.39s-58.39-26.09-58.39-58.39,26.24-58.39,58.39-58.39Zm83.56-48.23c14.74,0,26.69,11.95,26.69,26.69s-11.95,26.69-26.69,26.69-26.69-11.95-26.69-26.69,11.95-26.69,26.69-26.69Z"/></svg>