<svg xmlns:xlink="http://www.w3.org/1999/xlink" xmlns="http://www.w3.org/2000/svg" id="Layer_1" data-name="Layer 1" viewBox="0 0 291.32 291.32" width="291.32"  height="291.32" ><defs><style>      .cls-1 {        fill: #fff;      }      .cls-2 {        fill: #ff5034;      }    </style></defs><path class="cls-2" d="M20.97,208.77c0,16.04,4.04,33.72,16.25,45.21,12.2,12.2,28.41,16.25,45.21,16.25h126.46c22.75,0,43.56-8.87,54.87-29.44,5.25-9.55,6.59-21.29,6.59-32.03V82.55c0-16.23-3.9-33.59-16.25-45.21-12.2-12.2-28.41-16.25-45.21-16.25H82.43c-16.51,0-33.26,4.06-45.21,16.01-12.32,12.32-15.55,28.45-16.25,45.21v126.46Z"/><path class="cls-1" d="M218.31,175.1c.24-.94,.47-1.88,.71-2.83,10.36-41.21-14.84-90.19-57.69-115.86,18.84,25.43,27.08,56.28,19.78,83.13-.71,2.36-1.41,4.71-2.35,7.06-.94-.71-2.12-1.41-3.77-2.12,0,0-42.62-26.37-88.78-72.77-1.18-1.18,24.73,36.97,53.93,67.82-13.89-7.77-52.28-35.79-76.77-57.93,3.06,4.95,6.59,9.89,10.36,14.36,20.25,25.9,46.86,57.69,78.65,82.19-22.37,13.66-53.93,14.84-85.25,0-7.77-3.53-15.07-8.01-21.9-12.95,13.19,21.19,33.67,39.56,58.64,50.39,29.67,12.72,59.58,11.77,81.48,0,.94-.47,1.88-1.18,2.83-1.65,10.6-5.42,31.32-10.83,42.62,10.83,3.3,4.94,9.18-23.31-12.48-49.69h0Z"/></svg>