<svg xmlns="http://www.w3.org/2000/svg" xmlns:xlink="http://www.w3.org/1999/xlink" id="Layer_1" x="0px" y="0px" viewBox="0 0 360 108" style="enable-background:new 0 0 360 108;" xml:space="preserve" width="360"  height="108" ><style type="text/css">	.st0{fill:#FFF9FA;}	.st1{fill:#6EC8BF;}	.st2{fill:#007F3E;}	.st3{fill:#ED1C24;}</style><g>	<path class="st0" d="M0,19.4h29.5c13.5,0,27.3,3.2,27.3,19.2c0,6.1-3.1,12-9.1,13.9v0.5C55.2,55.7,60,61.2,60,69.5  c0,14.2-13.3,19.1-25.5,19.1H0V19.4z M25.8,46c3.7,0,7.9-0.4,7.9-5.1c0-5.1-4.7-4.8-8.4-4.8h-1.8V46H25.8z M23.5,72.1h2.9  c4.2,0,10.2-0.1,10.2-5.8c0-5.8-6.5-5.7-10.5-5.7h-2.5C23.5,60.6,23.5,72.1,23.5,72.1z"/>	<path class="st0" d="M88.8,88.6H61.9l24.2-69.1h28L139,88.6h-26.8l-2.3-8.6H90.8L88.8,88.6z M105.5,63.5l-3-12.2  c-0.7-2.9-1.2-6-1.7-8.9h-0.9l-4.6,21.1H105.5z"/>	<path class="st0" d="M148.5,63.8l1.3,1c4.5,3.5,10,6.3,15.8,6.3c2.5,0,6.5-1,6.5-4.1c0-3.1-3.3-3.4-5.6-3.9l-5.1-0.9  c-9.9-1.7-18.2-7.5-18.2-18.3c0-16.4,15.1-25.6,30.2-25.6c8,0,15.3,1.9,22.1,6.1l-6.8,17.7c-4.3-2.9-9.2-5.2-14.7-5.2  c-2.2,0-5.4,0.8-5.4,3.7c0,2.6,3.2,2.9,5.1,3.4l5.7,1.3c10.7,2.4,18.5,8.1,18.5,19.8c0,16.5-15.1,24.7-30.2,24.7  c-8.8,0-19-2.4-26.8-6.3L148.5,63.8z"/>	<rect x="205.8" y="19.4" class="st0" width="25.3" height="69.1"/>	<path class="st0" d="M247,63.8l1.3,1c4.5,3.5,10,6.3,15.8,6.3c2.5,0,6.5-1,6.5-4.1c0-3.1-3.3-3.4-5.6-3.9l-5.1-0.9  c-9.9-1.7-18.2-7.5-18.2-18.3c0-16.4,15.1-25.6,30.2-25.6c7.9,0,15.3,1.9,22.1,6.1l-6.8,17.7c-4.4-2.9-9.2-5.2-14.7-5.2  c-2.2,0-5.5,0.8-5.5,3.7c0,2.6,3.1,2.9,5.1,3.4l5.7,1.3c10.7,2.4,18.5,8.1,18.5,19.8c0,16.5-15.2,24.7-30.2,24.7  c-8.8,0-19-2.4-26.8-6.3L247,63.8z"/>	<polygon class="st1" points="311.4,72 311.4,54.1 326.6,63.1 342,72 326.7,81 311.4,90  "/>	<polygon class="st2" points="311.4,36 311.4,18 326.6,27 342,36 326.7,45 311.4,53.9  "/>	<polygon class="st3" points="329.3,53.8 329.3,35.9 344.3,44.8 359.6,53.8 344.4,62.8 329.3,71.7  "/>	<path class="st0" d="M351,18c1.2,0,2.4,0.2,3.5,0.7c1.1,0.4,2.1,1.1,2.9,2c0.8,0.8,1.5,1.8,1.9,2.9c0.5,1.1,0.7,2.3,0.7,3.5  c0,1.2-0.2,2.4-0.7,3.5c-0.4,1.1-1.1,2-1.9,2.8c-0.9,0.9-1.9,1.5-3,2c-1.1,0.5-2.3,0.7-3.4,0.7c-1.2,0-2.3-0.2-3.4-0.7  c-1.1-0.5-2-1.1-2.9-2c-0.9-0.9-1.5-1.8-2-2.9c-0.5-1.1-0.7-2.2-0.7-3.4c0-1.2,0.2-2.4,0.7-3.5c0.5-1.1,1.1-2.1,2-3  c0.8-0.8,1.8-1.5,2.8-1.9C348.6,18.3,349.8,18,351,18 M358.2,27c0-1-0.2-1.9-0.5-2.7c-0.4-0.9-0.9-1.6-1.5-2.3  c-0.7-0.7-1.5-1.2-2.3-1.6c-0.9-0.4-1.8-0.5-2.7-0.5c-1,0-1.9,0.2-2.7,0.5c-0.9,0.3-1.6,0.9-2.3,1.5c-0.7,0.7-1.2,1.5-1.6,2.4  c-0.4,0.9-0.5,1.8-0.5,2.7s0.2,1.9,0.5,2.7c0.4,0.9,0.9,1.6,1.6,2.3c0.7,0.7,1.5,1.2,2.3,1.6c0.9,0.4,1.8,0.5,2.7,0.5  c1,0,1.9-0.2,2.7-0.5c0.9-0.4,1.7-0.9,2.4-1.6c0.7-0.7,1.2-1.4,1.5-2.3C358,28.9,358.2,28,358.2,27 M352.6,25.3  c0-0.5-0.2-0.9-0.5-1.2c-0.3-0.3-0.6-0.4-1.1-0.4c-0.6,0-1,0.3-1.4,0.9c-0.3,0.6-0.5,1.4-0.5,2.4c0,1,0.2,1.8,0.5,2.4  c0.3,0.5,0.8,0.8,1.5,0.8c0.5,0,0.8-0.1,1.1-0.4c0.3-0.3,0.4-0.7,0.4-1.3l3,0c0,1.2-0.5,2.1-1.3,2.8c-0.8,0.7-1.9,1.1-3.2,1.1  c-1.6,0-2.8-0.5-3.7-1.4c-0.9-0.9-1.3-2.2-1.3-3.8c0-1.6,0.4-2.9,1.3-3.9c0.9-1,2-1.5,3.5-1.5c1.4,0,2.5,0.3,3.3,1  c0.8,0.6,1.3,1.5,1.3,2.6H352.6z"/></g></svg>