<svg xmlns="http://www.w3.org/2000/svg" xmlns:xlink="http://www.w3.org/1999/xlink" id="Layer_1" x="0px" y="0px" viewBox="0 0 512 97" style="enable-background:new 0 0 512 97;" xml:space="preserve" width="512"  height="97" ><style type="text/css">	.st0{fill:#82B541;}	.st1{fill:#FFFFFF;}</style><g>	<path class="st0" d="M65.9,9.8c-2.6-1.4-10-0.5-18.8,2.2C31.6,22.6,18.5,38.2,17.6,63.3c-0.2,0.6-1.7-0.1-2-0.3  c-4.2-8-5.8-16.5-2.4-28.7c0.7-1.1-1.5-2.4-1.9-2c-0.8,0.8-4,4.2-6.1,7.9C-5.3,58.5,1.6,81.9,20,92.1c18.4,10.3,41.7,3.6,52-14.8  C83.9,56.1,72.8,13.7,65.9,9.8L65.9,9.8z"/>	<g>		<path class="st1" d="M131.8,20C110,20,94.1,36.3,94.1,58.6c0,22.6,15.8,38.3,38.5,38.3c11.4,0,20.5-3.6,27.7-10.9   c2.2-2.3,2.4-4.6,2.4-5.4c0-3.6-2.7-6.3-6.5-6.3c-1.9,0-3.5,0.7-5.3,2.4c-4.1,3.8-9.5,7.7-18.4,7.7c-12.4,0-22.5-9.3-23.1-21.3   h49.3c5.4,0,8-2.5,8-7.7c0-1.5,0-2.6-0.3-4.8C163.8,31.5,150.9,20,131.8,20L131.8,20z M131.8,32c11.8,0,19.4,7.5,19.9,19.7h-42.3   C110.6,40.5,120.1,32,131.8,32L131.8,32z"/>		<path class="st1" d="M213.9,20c-9.9,0-19.8,5.7-23.6,13.6v-4.9c0-7.6-5.9-8-7.1-8c-3.5,0-7.2,2.1-7.2,8v59.2   c0,7.9,6.3,8.3,7.5,8.3s7.5-0.4,7.5-8.3V56.2c0-13.8,7.8-23.4,19-23.4c10.8,0,16.1,7.1,16.1,21.8v33.4c0,7.9,6.3,8.3,7.5,8.3   s7.5-0.4,7.5-8.3V49.8C241.2,35.4,234.1,20,213.9,20L213.9,20z"/>		<path class="st1" d="M309.2,20.8c-3.5,0-6,2-7.5,6l-20.6,51.7l-20.4-51.7c-1.6-4-4.1-6-7.6-6c-4.1,0-7.5,3.2-7.5,7.2   c0,1,0.1,2.3,0.9,4.3L270.2,88c2.8,6.7,7.4,8.1,10.8,8.1c3.4,0,8-1.4,10.8-8.1l23.8-56.1c0.8-2,0.9-3.4,0.9-4.1   C316.6,23.8,313.4,20.8,309.2,20.8L309.2,20.8z"/>		<path class="st1" d="M352.9,20c-9.6,0-18.6,2.7-25.2,7.5c-2.3,1.6-3.3,3.5-3.3,5.9c0,3.4,2.6,6,5.8,6c1.4,0,3-0.6,4.5-1.6   c5.7-3.8,11.1-5.6,16.9-5.6c11.1,0,17.5,5.7,17.5,15.5v1.6c-24.9,0-50.3,3-50.3,24.7c0,15.6,13.3,22.6,26.6,22.6   c10.5,0,18.9-4.2,24.3-12.1v3.8c0,5.7,3.8,7.7,7.1,7.7c0.7,0,6.8-0.2,6.8-7.7V48.7C383.5,30.7,372.1,20,352.9,20L352.9,20z    M365.9,60.5h3.2V64c0,12.7-8.1,20.8-20.5,20.8c-3.4,0-14.4-0.8-14.4-10.9C334.1,61.9,352.2,60.5,365.9,60.5L365.9,60.5z"/>		<path class="st1" d="M422.6,34.4c6.6,0,6.9-5.1,6.9-6.1c0-3-1.8-6.3-6.9-6.3h-13.5V8.3c0-6.1-4-8.3-7.4-8.3   c-1.3,0-7.5,0.4-7.5,8.3v65c0,15,7.4,22.9,21.4,22.9c3.6,0,7.1-0.6,9.5-1.7c2.6-1.3,4.2-3.5,4.2-6c0-3.5-2.5-6-6-6   c-0.7,0-1.6,0.2-2.7,0.5c-1.3,0.3-2.2,0.4-3.1,0.4c-5.7,0-8.3-3.7-8.3-11.7V34.4L422.6,34.4L422.6,34.4z"/>		<path class="st1" d="M472.3,20c-22.7,0-39.2,16.1-39.2,38.3c0,10.8,4,20.7,11.2,27.7c7.2,7,17.1,10.9,28,10.9   c22.4,0,39.4-16.6,39.4-38.6C511.7,36.1,495.1,20,472.3,20L472.3,20z M472.3,84.2c-15.6,0-23.7-13-23.7-25.9   c0-17.7,12.3-25.7,23.7-25.7s23.7,8,23.7,25.7C496.1,76.1,483.8,84.2,472.3,84.2L472.3,84.2z"/>	</g></g></svg>