<svg xmlns="http://www.w3.org/2000/svg" xmlns:xlink="http://www.w3.org/1999/xlink" id="Capa_1" x="0px" y="0px" viewBox="0 0 448.5 448.5" style="enable-background:new 0 0 448.5 448.5;" xml:space="preserve"><style type="text/css">	.st0{fill:#5ABA47;}	.st1{fill-rule:evenodd;clip-rule:evenodd;fill:#5ABA47;}</style><g>	<g>		<g>			<path class="st0" d="M283.8,152l-35.7-5.2l-16-32.3c-0.9-1.7-2.3-3.2-4-4c-4.4-2.2-9.7-0.4-11.9,4l-16,32.3l-35.7,5.2    c-1.9,0.3-3.7,1.2-5.1,2.6c-3.4,3.5-3.3,9.1,0.2,12.5l25.8,25.2l-6.1,35.5c-0.1,0.5-0.1,1-0.1,1.5c0,4.9,4,8.9,8.9,8.9    c1.4,0,2.9-0.4,4.1-1.1l31.9-16.7l31.9,16.7c1.7,0.9,3.7,1.2,5.6,0.9c4.8-0.8,8.1-5.4,7.3-10.2l-6.1-35.5l25.8-25.2    c1.4-1.4,2.3-3.1,2.6-5.1C292,157.2,288.7,152.7,283.8,152z M247.2,182.7c-2.1,2-3.1,5-2.6,7.9l3.8,22.4l-20.1-10.6    c-1.3-0.7-2.7-1-4.1-1c-1.4,0-2.9,0.4-4.1,1.1L200,213.1l3.9-22.4c0.5-2.9-0.4-5.8-2.6-7.9L185,166.9l22.5-3.3    c2.9-0.4,5.4-2.2,6.7-4.8l10.1-20.4l10.1,20.4c1.3,2.6,3.8,4.4,6.7,4.8l22.5,3.2L247.2,182.7z"></path>			<path class="st0" d="M224.3,60.5c-63.7,0-115.3,51.6-115.3,115.3s51.6,115.3,115.3,115.3c63.7-0.1,115.2-51.7,115.3-115.3    C339.6,112.1,287.9,60.5,224.3,60.5z M224.3,273.4c-53.9,0-97.6-43.7-97.6-97.6s43.7-97.6,97.6-97.6    c53.9,0.1,97.5,43.7,97.6,97.6C321.9,229.7,278.2,273.4,224.3,273.4z"></path>			<path class="st0" d="M386.6,199.7L370,206c2.6,6.8,5.8,15.3,4.7,18.7c-1.2,3.8-8.8,8.7-15.4,13c-7.9,5.1-16.8,11-23,19.4    c-6.2,8.5-9.1,19-11.5,28.1c-2,7.2-4.4,16.2-7.5,18.4s-12.2,1.8-19.7,1.4c-9.5-0.5-20.3-1-30.5,2.3c-9.8,3.2-18,9.8-25.3,15.7    c-6.2,5-13.3,10.7-17.5,10.7s-11.3-5.7-17.5-10.7c-7.2-5.9-15.5-12.5-25.3-15.7c-5.6-1.8-11.9-2.7-19.8-2.7    c-3.7,0-7.2,0.2-10.7,0.3c-7.4,0.4-16.6,0.8-19.6-1.4c-3-2.2-5.6-11.3-7.5-18.5c-2.5-9.2-5.3-19.5-11.5-28.1    c-6.2-8.6-15.1-14.3-23-19.4c-6.6-4.3-14.1-9.2-15.4-13c-1.1-3.4,2.1-11.9,4.7-18.7c3.4-9,7.3-19.3,7.3-30.1s-3.9-21.1-7.3-30.1    c-2.6-6.8-5.8-15.3-4.7-18.7c1.2-3.8,8.8-8.7,15.4-13c7.9-5.1,16.8-11,23-19.4c6.2-8.5,9.1-19,11.6-28.1c2-7.2,4.4-16.2,7.5-18.4    s12.2-1.8,19.6-1.4c9.5,0.5,20.3,1,30.5-2.3c9.8-3.2,18-9.8,25.3-15.7c6.2-5,13.2-10.7,17.5-10.7s11.3,5.7,17.5,10.7    c7.2,5.9,15.5,12.5,25.3,15.7c10.2,3.3,21,2.8,30.5,2.3c7.4-0.3,16.6-0.8,19.6,1.4s5.5,11.2,7.5,18.4c2.5,9.2,5.3,19.5,11.5,28.1    s15.1,14.3,23,19.4c6.6,4.3,14.1,9.2,15.4,13c1.1,3.4-2.1,11.9-4.7,18.7c-3.4,9-7.3,19.3-7.3,30.1s3.9,21.1,7.3,30.1l8.3-3.1    L386.6,199.7c-3.2-8.4-6.2-16.2-6.2-23.9s3-15.5,6.1-23.9c4.1-10.8,8-21.1,5-30.4c-3.2-9.8-13-16.2-22.6-22.4    c-6.9-4.5-14.1-9.2-18.3-15c-4.2-5.8-6.6-14.3-8.8-22.3c-3.1-11.4-6-22.2-14.2-28.1s-19.2-5.4-30.9-4.8    c-8.4,0.4-17.1,0.8-24.2-1.5c-6.7-2.2-13.3-7.5-19.6-12.6C244,7.5,234.8,0,224.3,0s-19.7,7.5-28.7,14.7    c-6.3,5.1-12.9,10.4-19.6,12.6c-7.1,2.3-15.4,1.9-24.2,1.5c-11.7-0.6-22.8-1.1-30.9,4.8s-11.1,16.7-14.2,28.1    c-2.2,8.1-4.5,16.4-8.8,22.3s-11.4,10.5-18.3,15c-9.5,6.2-19.4,12.6-22.6,22.4c-3,9.3,0.9,19.6,5,30.5c3.2,8.4,6.1,16.2,6.1,23.9    s-3,15.5-6.1,23.9c-4.1,10.8-8,21.1-5,30.4c3.2,9.8,13,16.2,22.6,22.4c6.9,4.5,14.1,9.2,18.3,15c4.2,5.8,6.6,14.3,8.8,22.3    c1.9,7,3.7,13.7,6.7,19.2l-35.9,91.8c-1.8,4.6,0.5,9.7,5,11.5c1.4,0.5,2.8,0.7,4.3,0.5l50.2-6l32.8,38.5c3.2,3.7,8.8,4.2,12.5,1    c1.1-1,2-2.2,2.5-3.5l35.8-91.6c2.4,0.4,4.8,0.4,7.2,0l35.8,91.6c1.8,4.6,6.9,6.8,11.5,5c1.4-0.5,2.6-1.4,3.5-2.5l32.8-38.5    l50.2,6c4.9,0.6,9.3-2.9,9.8-7.8c0.2-1.4,0-2.9-0.5-4.2l-35.9-91.8c3-5.5,4.8-12.3,6.7-19.2c2.2-8.1,4.5-16.4,8.8-22.3    c4.3-5.9,11.4-10.5,18.3-15c9.5-6.2,19.4-12.6,22.6-22.4C394.5,220.8,390.6,210.5,386.6,199.7z M173.7,422.7l-26.3-30.8    c-1.9-2.3-4.9-3.4-7.8-3l-40.2,4.8l28.2-72.3c7,2.2,15.4,1.9,24.1,1.4c3.2-0.2,6.6-0.3,9.8-0.3c6,0,10.5,0.6,14.3,1.8    c6.7,2.2,13.3,7.5,19.6,12.6c3,2.4,5.9,4.8,8.9,6.9L173.7,422.7z M349.1,393.6l-40.2-4.8c-2.9-0.4-5.9,0.8-7.8,3.1l-26.3,30.8    L244,343.8c3-2.1,6-4.5,8.9-6.9c6.3-5.1,12.9-10.4,19.6-12.6c7.1-2.3,15.4-1.9,24.2-1.5c8.8,0.4,17.1,0.8,24.1-1.4L349.1,393.6z"></path>		</g>	</g></g></svg>