<svg xmlns="http://www.w3.org/2000/svg" xmlns:xlink="http://www.w3.org/1999/xlink" id="Capa_1" x="0px" y="0px" viewBox="0 0 448.5 448.5" style="enable-background:new 0 0 448.5 448.5;" xml:space="preserve"><style type="text/css">	.st0{fill:#5ABA47;}	.st1{fill-rule:evenodd;clip-rule:evenodd;fill:#5ABA47;}</style><g>	<path class="st0" d="M233.6,364.4c0,5.2-4.2,9.3-9.3,9.3s-9.3-4.2-9.3-9.3c0-5.2,4.2-9.3,9.3-9.3S233.6,359.3,233.6,364.4z"></path>	<path class="st0" d="M432.6,280.3c0-30.9-25.1-56.1-56.1-56.1s-56.1,25.1-56.1,56.1s25.1,56.1,56.1,56.1S432.6,311.2,432.6,280.3z   M376.6,317.7c-20.6,0-37.4-16.8-37.4-37.4S356,243,376.6,243c20.6,0,37.4,16.8,37.4,37.4S397.2,317.7,376.6,317.7z"></path>	<path class="st0" d="M376.6,336.4c-23.5,0-47,9.8-63,25.6c-21.1-27.7-53.5-44.3-89.3-44.3c-34.3,0-67.5,15.6-89.3,44.3  c-16-15.8-39.5-25.6-63-25.6c-47.1,0-86.9,38.5-86.9,84.1v18.7c0,5.2,4.2,9.3,9.3,9.3h459.7c5.2,0,9.3-4.2,9.3-9.3v-18.7  C463.5,374.9,423.7,336.4,376.6,336.4z M3.7,420.5C3.7,385,35,355.1,72,355.1c20.2,0,40.3,9,52.7,23.2  c-8.2,15.9-12.5,33.5-12.5,51.5H3.7V420.5z M224.3,336.4c52,0,93.4,42.2,93.4,93.4H130.8C130.8,377.9,173.1,336.4,224.3,336.4z   M444.8,429.8H336.4c0-18-4.3-35.7-12.5-51.5c12.4-14.3,32.5-23.2,52.7-23.2c37,0,68.2,30,68.2,65.4V429.8z"></path>	<path class="st0" d="M128,280.3c0-30.9-25.1-56.1-56.1-56.1s-56.1,25.1-56.1,56.1S41,336.4,72,336.4S128,311.2,128,280.3z   M72,317.7c-20.6,0-37.4-16.8-37.4-37.4S51.3,243,72,243s37.4,16.8,37.4,37.4S92.6,317.7,72,317.7z"></path>	<path class="st0" d="M299,243c0-41.2-33.5-74.8-74.8-74.8s-74.8,33.5-74.8,74.8s33.5,74.8,74.8,74.8S299,284.2,299,243z M224.3,299  c-30.9,0-56.1-25.1-56.1-56.1s25.1-56.1,56.1-56.1s56.1,25.1,56.1,56.1S255.2,299,224.3,299z"></path>	<path class="st0" d="M298.2,54.3c-1.1-3.4-4-5.8-7.5-6.4l-40.3-5.9l-18-36.9C230.8,2,227.5,0,223.9,0c-3.6,0-6.8,2-8.4,5.2  l-18,36.9L157.2,48c-3.5,0.5-6.4,3-7.5,6.4c-1.1,3.4-0.2,7.1,2.4,9.6l29.2,28.4l-6.9,40.2c-0.6,3.5,0.8,7,3.7,9.1  c2.9,2.1,6.7,2.4,9.8,0.7l36.1-19l36.1,19c3.1,1.7,7,1.4,9.8-0.7c2.9-2.1,4.3-5.6,3.7-9.1l-6.9-40.2l29.2-28.4  C298.4,61.4,299.3,57.7,298.2,54.3z M250.1,82.4c-2.2,2.1-3.2,5.2-2.7,8.3l4.5,26.4l-23.7-12.4c-2.7-1.4-6-1.4-8.7,0L195.9,117  l4.5-26.4c0.5-3-0.5-6.1-2.7-8.3l-19.1-18.7l26.4-3.8c3.1-0.4,5.7-2.4,7.1-5.1l11.8-24.2l11.8,24.2c1.4,2.8,4,4.7,7.1,5.1l26.4,3.8  L250.1,82.4z"></path>	<path class="st0" d="M437.9,124.4c-1.1-3.4-4-5.8-7.5-6.4l-27.3-4l-12.2-24.7c-1.6-3.2-4.8-5.2-8.4-5.2c0,0,0,0,0,0  c-3.6,0-6.8,2-8.4,5.2l-12.2,24.7l-27.3,4c-3.5,0.5-6.4,3-7.5,6.4c-1.1,3.4-0.2,7.1,2.4,9.6l19.8,19.3l-4.7,27.2  c-0.6,3.5,0.8,7,3.7,9.1c2.9,2.1,6.7,2.4,9.8,0.7l24.4-12.8l24.4,12.8c3.1,1.7,7,1.4,9.8-0.7c2.9-2.1,4.3-5.6,3.7-9.1l-4.7-27.2  l19.8-19.3C438.1,131.5,439,127.8,437.9,124.4z M399.2,143.3c-2.2,2.1-3.2,5.2-2.7,8.3l2.3,13.4l-12-6.3c-2.7-1.4-6-1.4-8.7,0  l-12,6.3l2.3-13.4c0.5-3-0.5-6.1-2.7-8.3l-9.7-9.5l13.4-1.9c3-0.4,5.7-2.4,7-5.1l6-12.2l6,12.2c1.4,2.8,4,4.7,7,5.1l13.4,1.9  L399.2,143.3z"></path>	<path class="st0" d="M120.2,124.4c-1.1-3.4-4-5.8-7.5-6.4l-27.3-4L73.1,89.3c-1.6-3.2-4.8-5.2-8.4-5.2c-3.6,0-6.8,2-8.4,5.2  l-12.2,24.7l-27.3,4c-3.5,0.5-6.4,3-7.5,6.4c-1.1,3.4-0.2,7.1,2.4,9.6l19.8,19.3l-4.7,27.2c-0.6,3.5,0.8,7,3.7,9.1  c2.9,2.1,6.7,2.4,9.8,0.7l24.4-12.8l24.4,12.8c3.2,1.7,7,1.4,9.8-0.7c2.9-2.1,4.3-5.6,3.7-9.1l-4.7-27.2l19.8-19.3  C120.4,131.5,121.3,127.8,120.2,124.4z M81.5,143.3c-2.2,2.1-3.2,5.2-2.7,8.3l2.3,13.4l-12-6.3c-2.7-1.4-6-1.4-8.7,0l-12,6.3  l2.3-13.4c0.5-3-0.5-6.1-2.7-8.3l-9.7-9.5l13.4-1.9c3-0.4,5.7-2.4,7-5.1l6-12.2l6,12.2c1.4,2.8,4,4.7,7,5.1l13.4,1.9L81.5,143.3z"></path>	<path class="st0" d="M265.2,367.3c-4.3-2.8-10.1-1.6-12.9,2.7c-2.8,4.3-1.6,10.1,2.7,12.9c8.6,5.7,15.5,13.6,20,22.9  c2.2,4.7,7.8,6.6,12.5,4.4c4.7-2.2,6.6-7.8,4.4-12.5C285.9,385.4,276.7,374.9,265.2,367.3z"></path></g></svg>