<svg xmlns:xlink="http://www.w3.org/1999/xlink" xmlns="http://www.w3.org/2000/svg" id="Layer_1" data-name="Layer 1" viewBox="0 0 291.32 291.32" width="291.32"  height="291.32" ><defs><style>      .cls-1 {        fill: #5382a1;      }      .cls-2 {        fill: #e76f00;      }    </style></defs><path class="cls-1" d="M112.1,215.56s-9.77,5.68,6.95,7.61c20.26,2.31,30.62,1.98,52.95-2.25,0,0,5.87,3.68,14.07,6.87-50.06,21.45-113.29-1.24-73.97-12.23"/><path class="cls-1" d="M105.99,187.56s-10.96,8.11,5.78,9.84c21.64,2.23,38.74,2.42,68.32-3.28,0,0,4.09,4.15,10.52,6.42-60.52,17.7-127.93,1.4-84.62-12.98"/><path class="cls-2" d="M157.55,140.07c12.33,14.2-3.24,26.98-3.24,26.98,0,0,31.32-16.17,16.93-36.41-13.43-18.88-23.73-28.26,32.03-60.6,0,0-87.54,21.86-45.73,70.04"/><path class="cls-1" d="M223.75,236.26s7.23,5.96-7.96,10.57c-28.89,8.75-120.26,11.4-145.64,.35-9.12-3.97,7.99-9.48,13.37-10.63,5.61-1.22,8.82-.99,8.82-.99-10.15-7.15-65.58,14.03-28.16,20.1,102.06,16.55,186.04-7.45,159.57-19.39"/><path class="cls-1" d="M116.8,158.56s-46.47,11.04-16.46,15.05c12.67,1.7,37.94,1.31,61.47-.66,19.23-1.62,38.54-5.07,38.54-5.07,0,0-6.78,2.9-11.69,6.25-47.19,12.41-138.36,6.64-112.11-6.06,22.2-10.73,40.24-9.51,40.24-9.51"/><path class="cls-1" d="M200.17,205.15c47.97-24.93,25.79-48.89,10.31-45.66-3.79,.79-5.49,1.47-5.49,1.47,0,0,1.41-2.21,4.1-3.16,30.63-10.77,54.18,31.76-9.89,48.6,0,0,.74-.66,.96-1.26"/><path class="cls-2" d="M171.25,17.81s26.57,26.58-25.2,67.45c-41.51,32.78-9.47,51.48-.02,72.83-24.23-21.86-42.01-41.11-30.08-59.02,17.51-26.29,66.02-39.04,55.3-81.26"/><path class="cls-1" d="M121.52,272.71c46.05,2.95,116.76-1.64,118.44-23.42,0,0-3.22,8.26-38.06,14.82-39.3,7.4-87.78,6.53-116.53,1.79,0,0,5.89,4.87,36.15,6.81"/></svg>