<svg xmlns="http://www.w3.org/2000/svg" xmlns:xlink="http://www.w3.org/1999/xlink" id="Capa_1" x="0px" y="0px" viewBox="0 0 448.5 448.5" style="enable-background:new 0 0 448.5 448.5;" xml:space="preserve"><style type="text/css">	.st0{fill:#5ABA47;}	.st1{fill-rule:evenodd;clip-rule:evenodd;fill:#5ABA47;}</style><g>	<path class="st0" d="M172.9,163.7l1.5,1.1v32.8c0,27.5,22.4,49.9,49.9,49.9c27.5,0,49.9-22.4,49.9-49.9v-32.8l1.5-1.1  c24.1-16.8,38.5-44.4,38.5-73.8c0-49.6-40.3-89.9-89.9-89.9c-49.6,0-89.9,40.3-89.9,89.9C134.4,119.3,148.8,146.8,172.9,163.7z   M254.5,197.6c0,16.7-13.6,30.2-30.2,30.2c-16.7,0-30.2-13.6-30.2-30.2v-28.5h60.4V197.6z M224.3,19.6c38.7,0,70.3,31.5,70.3,70.3  c0,23.9-12,45.9-32.1,59l-0.9,0.6h-27.5v-35l2.3-0.8c14.6-5.2,24.4-19,24.4-34.4v-9.8h-19.6v9.8c0,9.3-7.6,16.9-16.9,16.9  c-9.3,0-16.9-7.6-16.9-16.9v-9.8h-19.6v9.8c0,15.4,9.8,29.2,24.3,34.4l2.3,0.8v35H187l-0.9-0.6c-20.1-13-32.1-35.1-32.1-59  C154,51.2,185.5,19.6,224.3,19.6z"></path>	<rect x="81" y="80.1" class="st0" width="19.6" height="19.6"></rect>	<rect x="347.9" y="80.1" class="st0" width="19.6" height="19.6"></rect>			<rect x="92.6" y="134.4" transform="matrix(0.9135 -0.4068 0.4068 0.9135 -49.8131 54.1293)" class="st0" width="19.7" height="19.7"></rect>			<rect x="336.5" y="25.7" transform="matrix(0.9136 -0.4066 0.4066 0.9136 15.4668 143.8884)" class="st0" width="19.7" height="19.7"></rect>			<rect x="336.5" y="134.2" transform="matrix(0.4068 -0.9135 0.9135 0.4068 73.8591 401.8801)" class="st0" width="19.7" height="19.7"></rect>	<polygon class="st0" points="115.4,30.6 97.4,22.6 89.4,40.6 107.4,48.6  "></polygon>	<path class="st0" d="M384.8,362.2l-3.8-2.1l2.8-3.3c7.2-8.3,11.2-19,11.2-30c0-25.2-20.5-45.7-45.7-45.7  c-25.2,0-45.7,20.5-45.7,45.7c0,11,4,21.6,11.2,30l2.8,3.3l-3.8,2.1c-9.6,5.4-18,13.1-24.3,22.2l-2.9,4.2l-2.9-4.2  c-6.3-9.1-14.7-16.8-24.3-22.2l-3.8-2.1l2.8-3.3c7.2-8.3,11.2-19,11.2-30c0-25.2-20.5-45.7-45.7-45.7c-25.2,0-45.7,20.5-45.7,45.7  c0,11,4,21.6,11.2,30l2.8,3.3l-3.8,2.1c-9.6,5.4-18,13.1-24.3,22.2l-2.9,4.2l-2.9-4.2c-6.3-9.1-14.7-16.8-24.3-22.2l-3.8-2.1  l2.8-3.3c7.2-8.3,11.2-19,11.2-30c0-25.2-20.5-45.7-45.7-45.7c-12.2,0-23.7,4.8-32.3,13.4c-8.6,8.6-13.4,20.1-13.4,32.3  c0,11,4,21.6,11.2,30l2.8,3.3l-3.8,2.1c-22.8,12.9-37,37-37,63.1v23.2h395.1v-23.2C421.8,399.3,407.6,375.1,384.8,362.2z   M99.1,300.8c14.4,0,26.1,11.7,26.1,26.1c0,14.4-11.7,26.1-26.1,26.1S73,341.3,73,326.9C73,312.5,84.7,300.8,99.1,300.8z   M151.9,428.9H46.3v-3.5c0-29.1,23.7-52.8,52.8-52.8c29.1,0,52.8,23.7,52.8,52.8V428.9z M224.3,300.8c14.4,0,26.1,11.7,26.1,26.1  c0,14.4-11.7,26.1-26.1,26.1c-14.4,0-26.1-11.7-26.1-26.1C198.2,312.5,209.9,300.8,224.3,300.8z M277,428.9H171.5v-3.5  c0-29.1,23.7-52.8,52.8-52.8c29.1,0,52.8,23.7,52.8,52.8V428.9z M349.4,300.8c14.4,0,26.1,11.7,26.1,26.1  c0,14.4-11.7,26.1-26.1,26.1c-14.4,0-26.1-11.7-26.1-26.1C323.4,312.5,335,300.8,349.4,300.8z M402.2,428.9H296.7v-3.5  c0-29.1,23.7-52.8,52.8-52.8c29.1,0,52.8,23.7,52.8,52.8V428.9z"></path></g></svg>